<svg width="757" height="812" viewBox="0 0 757 812" fill="none" xmlns="http://www.w3.org/2000/svg">
<g clip-path="url(#clip0_26_119)">
<path d="M488.285 244.536L499.472 673.156C500.912 679.25 497.166 685.824 492.932 688.085C491.521 688.838 490.109 689.592 487.748 688.565C480.201 688.02 472.166 683.16 468.825 673.507L371.18 432.861L246.974 499.174C241.328 502.188 235.193 500.889 229.519 497.056C223.845 493.223 221.455 485.35 221.427 478.503L229.527 153.952C229.96 144.571 234.656 139.777 241.252 138.543C247.848 137.309 255.883 142.168 259.685 149.288L335.71 291.685L462.739 223.865C468.385 220.851 474.52 222.15 480.193 225.983C484.456 230.569 488.257 237.689 488.285 244.536Z" fill="#25D838"/>
</g>
<defs>
<clipPath id="clip0_26_119">
<rect width="512" height="645.684" fill="white" transform="translate(0.734375 241.793) rotate(-28.0975)"/>
</clipPath>
</defs>
</svg>
