<svg width="49" height="49" viewBox="0 0 49 49" fill="none" xmlns="http://www.w3.org/2000/svg">
<path d="M45.4016 9.6469L24.7297 1.99065C24.5766 1.91409 24.3469 1.91409 24.1938 1.99065L3.52187 9.6469C3.29219 9.72346 3.0625 10.0297 3.0625 10.336C3.0625 10.6422 3.29219 10.9485 3.59844 11.025L10.7188 13.7047V17.9922C10.7188 18.1453 10.7188 18.2219 10.7953 18.375C10.8719 18.4516 11.2547 19.2172 12.25 20.136C12.25 20.2125 12.1734 20.2891 12.1734 20.3657V20.4422C10.0297 20.825 8.34531 22.6625 8.34531 24.9594C8.34531 27.2563 10.0297 29.0938 12.1734 29.4766V29.7063C12.1734 29.7828 12.7859 33.611 15.6187 36.6735C11.5609 38.6641 8.26875 42.0328 6.35469 46.1672C6.27813 46.3969 6.27812 46.7031 6.43125 46.9328C6.58437 47.1625 6.81406 47.3156 7.04375 47.3156H41.8031C42.0328 47.3156 42.3391 47.1625 42.4156 46.9328C42.4922 46.7031 42.5687 46.4735 42.4922 46.1672C40.5781 42.0328 37.2859 38.7407 33.2281 36.6735C35.9844 33.611 36.6734 29.7828 36.6734 29.7063V29.4766C38.8172 29.0938 40.5016 27.2563 40.5016 24.9594C40.5016 22.6625 38.8172 20.825 36.6734 20.4422V20.3657C36.6734 20.2891 36.6734 20.2125 36.5969 20.136C37.5922 19.2172 38.0516 18.5282 38.0516 18.375C38.1281 18.2219 38.1281 18.1453 38.1281 17.9922V13.7047L41.1906 12.5563V18.911C40.2719 19.2172 39.6594 20.0594 39.6594 21.0547C39.6594 22.3563 40.6547 23.3516 41.9562 23.3516C43.2578 23.3516 44.2531 22.3563 44.2531 21.0547C44.2531 20.0594 43.6406 19.2172 42.7219 18.911V12.0203L45.2484 11.1016C45.5547 11.025 45.7844 10.7188 45.7844 10.4125C45.7844 10.1063 45.7078 9.72346 45.4016 9.6469ZM42.1094 21.8203C41.65 21.8203 41.3438 21.5141 41.3438 21.0547C41.3438 20.5953 41.65 20.2891 42.1094 20.2891C42.5687 20.2891 42.875 20.5953 42.875 21.0547C42.875 21.5141 42.5687 21.8203 42.1094 21.8203ZM13.7812 21.2844C14.7 21.8969 15.7719 22.5094 17.15 22.9688C16.6141 23.6578 15.4656 24.5766 13.7812 24.8063V21.2844ZM9.95312 24.8828C9.95312 23.4282 10.9484 22.2797 12.25 21.8969V27.7922C10.9484 27.486 9.95312 26.3375 9.95312 24.8828ZM16.8438 37.6688C18.0688 38.6641 19.6 39.5063 21.5141 39.8891L24.6531 45.5547H8.26875C10.2594 42.0328 13.2453 39.2766 16.8438 37.6688ZM23.5047 40.1953H25.4953L24.5 41.8797L23.5047 40.1953ZM40.6547 45.5547H26.4906L25.2656 43.411L27.4094 39.8891C29.3234 39.5063 30.8547 38.6641 32.0797 37.6688C35.7547 39.2766 38.7406 42.0328 40.6547 45.5547ZM35.2188 29.4C35.0656 30.2422 33.4578 38.6641 24.5 38.6641C15.6187 38.6641 13.9344 30.2422 13.7812 29.4V26.3375C16.6141 26.0313 18.1453 24.2703 18.7578 23.4282C19.4469 23.5813 20.1359 23.7344 20.9016 23.8875C21.2844 24.5 23.5812 27.5625 27.4094 28.2516C27.9453 28.3281 28.4813 28.4047 29.0172 28.4047H29.0938V28.7875C29.0938 29.2469 29.4 29.5531 29.8594 29.5531C30.3188 29.5531 30.625 29.2469 30.625 28.7875V28.2516C32.1562 28.0219 33.6875 27.3328 35.2188 26.4141V29.4ZM35.2188 24.5C32.6156 26.4141 30.0125 27.1797 27.7156 26.7203C25.5719 26.3375 23.9641 25.036 23.0453 24.0406C23.5047 24.0406 24.0406 24.1172 24.5 24.1172C29.7062 24.1172 33.075 22.7391 35.2188 21.2844V24.5ZM39.0469 24.8828C39.0469 26.3375 38.0516 27.486 36.75 27.8688V21.9735C38.0516 22.2797 39.0469 23.4282 39.0469 24.8828ZM36.75 17.7625C36.1375 18.6047 32.9984 22.586 24.5 22.586C16.0016 22.586 12.8625 18.6047 12.25 17.7625V14.2407L24.2703 18.6813C24.3469 18.6813 24.4234 18.7578 24.5 18.7578C24.5766 18.7578 24.6531 18.7578 24.7297 18.6813L36.75 14.2407V17.7625ZM24.5 17.15L6.04844 10.336L24.5 3.5219L42.9516 10.336L24.5 17.15Z" fill="white"/>
<path d="M19.1406 26.4141C18.6812 26.4141 18.375 26.7203 18.375 27.1797V28.7109C18.375 29.1703 18.6812 29.4766 19.1406 29.4766C19.6 29.4766 19.9062 29.1703 19.9062 28.7109V27.1797C19.9062 26.7203 19.6 26.4141 19.1406 26.4141ZM28.5578 33.3812C28.175 33.2281 27.7156 33.4578 27.5625 33.8406C27.5625 33.8406 26.95 35.6016 24.4234 35.6016C21.9734 35.6016 21.3609 33.9172 21.2844 33.8406C21.1312 33.4578 20.7484 33.2281 20.2891 33.3812C19.9062 33.5344 19.6766 33.9172 19.8297 34.3766C19.9062 34.5297 20.825 37.2094 24.3469 37.2094C27.8687 37.2094 28.8641 34.5297 28.8641 34.3766C29.1703 33.9172 28.9406 33.4578 28.5578 33.3812Z" fill="white"/>
</svg>
