<svg width="52" height="52" viewBox="0 0 52 52" fill="none" xmlns="http://www.w3.org/2000/svg">
<path d="M9.95313 36.5625C8.5872 36.5625 7.25195 36.1575 6.11622 35.3986C4.98049 34.6397 4.0953 33.5611 3.57259 32.2992C3.04987 31.0372 2.9131 29.6486 3.17958 28.3089C3.44606 26.9692 4.10382 25.7387 5.06967 24.7728C6.03553 23.8069 7.2661 23.1492 8.60579 22.8827C9.94547 22.6162 11.3341 22.753 12.596 23.2757C13.858 23.7984 14.9366 24.6836 15.6955 25.8193C16.4543 26.9551 16.8594 28.2903 16.8594 29.6563C16.8572 31.4872 16.1289 33.2426 14.8342 34.5373C13.5395 35.832 11.7841 36.5604 9.95313 36.5625ZM9.95313 25.1875C9.06929 25.1875 8.20531 25.4496 7.47042 25.9406C6.73554 26.4317 6.16277 27.1296 5.82454 27.9461C5.48631 28.7627 5.39782 29.6612 5.57024 30.5281C5.74267 31.3949 6.16828 32.1912 6.79324 32.8161C7.41821 33.4411 8.21447 33.8667 9.08132 34.0391C9.94817 34.2116 10.8467 34.1231 11.6632 33.7848C12.4798 33.4466 13.1777 32.8738 13.6688 32.139C14.1598 31.4041 14.4219 30.5401 14.4219 29.6563C14.4197 28.4717 13.9482 27.3363 13.1106 26.4987C12.2731 25.6612 11.1377 25.1897 9.95313 25.1875Z" fill="white"/>
<path d="M16.0469 46.3125H3.85938C3.53614 46.3125 3.22615 46.1841 2.99759 45.9555C2.76903 45.727 2.64062 45.417 2.64062 45.0938V39.4062C2.64277 38.0062 3.19988 36.6642 4.18984 35.6742C5.1798 34.6843 6.52186 34.1271 7.92188 34.125H11.9844C13.3844 34.1271 14.7264 34.6843 15.7164 35.6742C16.7064 36.6642 17.2635 38.0062 17.2656 39.4062V45.0938C17.2656 45.417 17.1372 45.727 16.9087 45.9555C16.6801 46.1841 16.3701 46.3125 16.0469 46.3125ZM5.07812 43.875H14.8281V39.4062C14.8281 38.652 14.5285 37.9287 13.9952 37.3954C13.4619 36.8621 12.7386 36.5625 11.9844 36.5625H7.92188C7.16767 36.5625 6.44435 36.8621 5.91104 37.3954C5.37773 37.9287 5.07812 38.652 5.07812 39.4062V43.875Z" fill="white"/>
<path d="M16.4531 41.4375C16.2186 41.438 15.9888 41.3708 15.7915 41.2439C15.5942 41.1171 15.4377 40.936 15.3408 40.7224C15.2439 40.5088 15.2106 40.2718 15.2451 40.0398C15.2795 39.8077 15.3802 39.5906 15.535 39.4144L26.91 26.4144C27.1255 26.1709 27.4289 26.0229 27.7534 26.0031C28.078 25.9833 28.3971 26.0933 28.6406 26.3088C28.8841 26.5242 29.0321 26.8276 29.0519 27.1522C29.0717 27.4767 28.9617 27.7959 28.7463 28.0394L17.3712 41.0394C17.2554 41.1674 17.1136 41.2691 16.9552 41.3377C16.7969 41.4064 16.6257 41.4404 16.4531 41.4375ZM48.1406 8.125H8.32812C8.00489 8.125 7.6949 7.9966 7.46634 7.76804C7.23778 7.53948 7.10938 7.22948 7.10938 6.90625C7.10938 6.58302 7.23778 6.27302 7.46634 6.04446C7.6949 5.8159 8.00489 5.6875 8.32812 5.6875H48.1406C48.4639 5.6875 48.7739 5.8159 49.0024 6.04446C49.231 6.27302 49.3594 6.58302 49.3594 6.90625C49.3594 7.22948 49.231 7.53948 49.0024 7.76804C48.7739 7.9966 48.4639 8.125 48.1406 8.125ZM48.1406 33.3125H31.0781C30.7549 33.3125 30.4449 33.1841 30.2163 32.9555C29.9878 32.727 29.8594 32.417 29.8594 32.0938C29.8594 31.7705 29.9878 31.4605 30.2163 31.232C30.4449 31.0034 30.7549 30.875 31.0781 30.875H48.1406C48.4639 30.875 48.7739 31.0034 49.0024 31.232C49.231 31.4605 49.3594 31.7705 49.3594 32.0938C49.3594 32.417 49.231 32.727 49.0024 32.9555C48.7739 33.1841 48.4639 33.3125 48.1406 33.3125Z" fill="white"/>
<path d="M44.8906 33.3125C44.5674 33.3125 44.2574 33.1841 44.0288 32.9555C43.8003 32.727 43.6719 32.417 43.6719 32.0938V6.90625C43.6719 6.58302 43.8003 6.27302 44.0288 6.04446C44.2574 5.8159 44.5674 5.6875 44.8906 5.6875C45.2139 5.6875 45.5239 5.8159 45.7524 6.04446C45.981 6.27302 46.1094 6.58302 46.1094 6.90625V32.0938C46.1094 32.417 45.981 32.727 45.7524 32.9555C45.5239 33.1841 45.2139 33.3125 44.8906 33.3125ZM11.5781 19.5C11.2549 19.5 10.9449 19.3716 10.7163 19.143C10.4878 18.9145 10.3594 18.6045 10.3594 18.2812V6.90625C10.3594 6.58302 10.4878 6.27302 10.7163 6.04446C10.9449 5.8159 11.2549 5.6875 11.5781 5.6875C11.9014 5.6875 12.2114 5.8159 12.4399 6.04446C12.6685 6.27302 12.7969 6.58302 12.7969 6.90625V18.2812C12.7969 18.6045 12.6685 18.9145 12.4399 19.143C12.2114 19.3716 11.9014 19.5 11.5781 19.5ZM29.4531 15.4375H20.5156C20.1924 15.4375 19.8824 15.3091 19.6538 15.0805C19.4253 14.852 19.2969 14.542 19.2969 14.2188C19.2969 13.8955 19.4253 13.5855 19.6538 13.357C19.8824 13.1284 20.1924 13 20.5156 13H29.4531C29.7764 13 30.0864 13.1284 30.3149 13.357C30.5435 13.5855 30.6719 13.8955 30.6719 14.2188C30.6719 14.542 30.5435 14.852 30.3149 15.0805C30.0864 15.3091 29.7764 15.4375 29.4531 15.4375ZM35.1406 21.9375H20.5156C20.1924 21.9375 19.8824 21.8091 19.6538 21.5805C19.4253 21.352 19.2969 21.042 19.2969 20.7188C19.2969 20.3955 19.4253 20.0855 19.6538 19.857C19.8824 19.6284 20.1924 19.5 20.5156 19.5H35.1406C35.4639 19.5 35.7739 19.6284 36.0024 19.857C36.231 20.0855 36.3594 20.3955 36.3594 20.7188C36.3594 21.042 36.231 21.352 36.0024 21.5805C35.7739 21.8091 35.4639 21.9375 35.1406 21.9375Z" fill="white"/>
</svg>
