<svg width="76" height="76" viewBox="0 0 76 76" fill="none" xmlns="http://www.w3.org/2000/svg">
<g clip-path="url(#clip0_12_71)">
<path d="M76 38C76 17.0132 58.9868 0 38 0C17.0132 0 0 17.0132 0 38C0 58.9868 17.0132 76 38 76C58.9868 76 76 58.9868 76 38Z" fill="#419FD9"/>
<path d="M76 38C76 17.0132 58.9868 0 38 0C17.0132 0 0 17.0132 0 38C0 58.9868 17.0132 76 38 76C58.9868 76 76 58.9868 76 38Z" fill="url(#paint0_linear_12_71)"/>
<path d="M17.08 37.1623C28.1306 32.2467 35.4993 29.0059 39.1864 27.44C49.7133 22.9694 51.9009 22.1928 53.3267 22.167C53.6402 22.1616 54.3413 22.2409 54.7955 22.6171C55.179 22.9349 55.2845 23.3642 55.335 23.6653C55.3855 23.9666 55.4483 24.6528 55.3983 25.1889C54.8278 31.3088 52.3596 46.1604 51.1037 53.0148C50.5723 55.9151 49.526 56.8876 48.5132 56.9828C46.3119 57.1895 44.6402 55.4974 42.5082 54.0704C39.1718 51.8376 37.2872 50.4474 34.0486 48.2686C30.3061 45.7504 32.7322 44.3664 34.8652 42.1045C35.4233 41.5126 45.1223 32.5051 45.3101 31.6881C45.3335 31.5858 45.3554 31.2048 45.1337 31.0037C44.912 30.8027 44.5849 30.8714 44.3488 30.926C44.0143 31.0036 38.6845 34.6004 28.3596 41.7166C26.8467 42.7772 25.4765 43.2939 24.2487 43.2668C22.8953 43.237 20.2918 42.4856 18.3564 41.8432C15.9825 41.0552 14.0957 40.6388 14.26 39.3007C14.3456 38.6037 15.2855 37.8909 17.08 37.1623Z" fill="white"/>
</g>
<defs>
<linearGradient id="paint0_linear_12_71" x1="38" y1="0" x2="38" y2="75.4363" gradientUnits="userSpaceOnUse">
<stop stop-color="#2AABEE"/>
<stop offset="1" stop-color="#229ED9"/>
</linearGradient>
<clipPath id="clip0_12_71">
<rect width="76" height="76" fill="white"/>
</clipPath>
</defs>
</svg>
